<?xml version="1.0" encoding="utf-8"?>
<!-- Generator: Adobe Illustrator 23.0.3, SVG Export Plug-In . SVG Version: 6.00 Build 0)  -->
<svg version="1.1" id="Capa_1" xmlns="http://www.w3.org/2000/svg" xmlns:xlink="http://www.w3.org/1999/xlink" x="0px" y="0px"
	 viewBox="0 0 1200 1200" enable-background="new 0 0 1200 1200" xml:space="preserve">
<path fill="#51D4ED" d="M1086.168,730.462c-5.415,3.028-11.164,5.542-16.925,7.826c-19.347,7.672-39.953,11.067-59.618,2.128
	c-3.908-2.09-12.152-5.685-9.047-12.34c1.188-2.545,10.602-6.207,12.688-7.059c4.999-2.041,10.252-3.548,15.481-4.875
	c17.746-4.505,45.244-8.327,62.871-0.633C1103.85,720.848,1094.037,726.062,1086.168,730.462z M168.216,476.095
	c19.665,8.939,40.271,5.544,59.618-2.128c5.761-2.285,11.51-4.798,16.925-7.826c7.869-4.4,17.682-9.614,5.451-14.953
	c-17.628-7.694-45.126-3.872-62.872,0.633c-5.229,1.327-10.482,2.834-15.481,4.875c-2.086,0.852-11.501,4.514-12.688,7.059
	C156.064,470.41,164.307,474.005,168.216,476.095z M312.469,772.038c-24.38-9.383-57.182-6.021-81.824-0.014
	c-9.235,2.252-18.637,5.026-27.247,9.079c-3.873,1.823-13.326,5.55-14.351,10.16c-1.873,8.417,8.926,12.777,14.474,15.728
	c25.725,12.049,53.394,7.505,78.858-2.615c8.417-3.345,16.778-7.04,24.639-11.56C317.195,786.963,328.609,778.249,312.469,772.038z
	 M1114.618,545.055c-19.722-5.849-40.337-8.727-60.708-11.211c-38.205-4.658-77.726-5.443-115.298-14.252
	c-9.077-2.128-22.204-5.054-27.516-13.763c-11.778-19.309,8.565-36.03,25.312-39.798c19.295-4.342,42.908-4.318,49.781-27.409
	c6.362-21.374-7.566-36.858-27.008-42.564c-28.073-8.239-58.062-3.359-86.799-5.001c-49.665-2.838-99.107-9.166-148.787-12.07
	c-42.112-2.461-86.477-5.443-128.401,1.073c-20.177,3.136-41.157,9.083-57.041,22.497c-6.765,5.713-19.317,17.319-14.449,27.375
	c2.362,4.879,10.189,7.781,14.79,9.862c15.278,6.909,42.704,11.907,45.746,32.081c5.433,36.031-53.351,28.965-72.995,26.966
	c-47.713-4.853-95.469-16.924-143.637-15.686c-14.191,0.365-37.022,1.389-44.171,16.487c-10.531,22.242,28.15,30.66,40.55,40.633
	c13.539,10.89,14.277,29.317,0.386,40.699c-16.938,13.878-45.916,14.075-66.514,14.994c-24.48,1.093-49.05-0.716-73.497,0.674
	c-44.814,2.548-91.747,12.068-133.622,28.455c-10.022,3.922-35.549,12.539-40.117,24.321c-5.959,15.374,32.695,26.991,42.94,30.25
	c32.228,10.251,66.319,11.5,99.872,10.589c81.318-2.208,163.09-14.165,244.4-4.968c31.89,3.607,80.747,14.145,52.694,56.401
	c-0.282,0.425-0.603,0.766-0.94,1.068c-0.261,0.277-0.561,0.538-0.905,0.778c-17.678,12.282-48.065,35.832-19.677,53.34
	c20.918,12.901,48.716,16.293,72.581,19.451c29.296,3.876,58.885,5.567,88.405,6.521c34.877,1.128,70.015,1.95,104.831-0.978
	c28.571-2.403,57.229-6.74,84.755-14.924c15.131-4.499,30.076-10.189,43.583-18.457c11.574-7.085,35.908-24.708,29.325-40.685
	c-3.997-9.701-18.137-14.944-25.665-21.456c-6.561-5.676-11.834-12.59-12.723-21.493c-2.073-20.771,16.275-39.942,32.86-49.457
	c47.458-27.227,111.293-20.124,163.756-25.429c26.451-2.675,57.507-6.627,78.5-24.599c9.522-8.151,24.886-24.654,19.77-38.746
	C1144.345,553.845,1126.17,548.481,1114.618,545.055z"/>
</svg>
